# xmcd
#
# Track frame offsets:
#  150
#  20540
#  45022
#  63152
#  77235
#  98169
#  112975
#  126414
#  143531
#  159427
#  179381
#  196449
#  206861
#  229421
#  252528
#
# Disc length: 3654 seconds
#
# Revision: 0
# Processed by: cddbd v1.4PL0 Copyright (c) Steve Scherf et al.
# Submitted via: AltoMP3_Maker 3.0
#
DISCID=cc0e440f
DTITLE=陈小春等 - 千喜影视情歌集
DYEAR=1900
DGENRE=
TTITLE0=爱就一个字
TTITLE1=想你的365天
TTITLE2=天地在我心
TTITLE3=叱咤红人
TTITLE4=你是风儿我是沙
TTITLE5=天涯海角
TTITLE6=双面人
TTITLE7=雨碟
TTITLE8=有一个姑娘
TTITLE9=伤心太平洋
TTITLE10=不见不散
TTITLE11=雍正王朝
TTITLE12=相见不如怀念
TTITLE13=朋友
TTITLE14=梦里
EXTD=
EXTT0=
EXTT1=
EXTT2=
EXTT3=
EXTT4=
EXTT5=
EXTT6=
EXTT7=
EXTT8=
EXTT9=
EXTT10=
EXTT11=
EXTT12=
EXTT13=
EXTT14=
PLAYORDER=
